<svg width="181" height="28" viewBox="0 0 181 28" fill="none" xmlns="http://www.w3.org/2000/svg">
<g clip-path="url(#clip0)">
<path d="M24.5577 18.237L20.8595 13.315C20.4797 12.8075 20.2698 12.1986 20.2698 11.5694L20.1999 5.37876C20.1699 2.96339 17.4412 1.60348 15.5422 3.07503L10.6746 6.85031V6.86046C10.6046 6.90105 10.5647 6.9721 10.5647 7.06343C10.5647 7.13447 10.5947 7.19536 10.6346 7.23596C11.884 8.63647 13.0035 10.1588 13.963 11.7927C14.003 11.8637 13.923 11.9449 13.853 11.8942C10.4947 9.1033 5.24731 7.45923 2.86849 7.48967C0.489677 7.52012 -0.849657 10.2907 0.599622 12.2189L4.29778 17.141C4.67759 17.6484 4.88749 18.2573 4.88749 18.8866L4.95746 25.0772C4.98744 27.4926 7.71608 28.8525 9.61514 27.3809L14.4627 23.626C14.9625 23.2403 15.5622 23.0272 16.1819 23.0272L22.2788 22.9562C24.6776 22.9359 26.007 20.1551 24.5577 18.237Z" fill="#EF0627"/>
<path d="M40.6998 6.54587H41.5793V18.9678C41.5793 20.6829 42.3889 21.6774 43.7583 21.718V23.0069H36.0921V21.718C37.7413 21.6774 38.6208 20.6118 38.6208 19.2215V10.4734L35.9521 9.11347V8.29143L40.6998 6.54587Z" fill="#444444"/>
<path d="M39.9601 3.85647C41.0089 3.85647 41.8591 2.99317 41.8591 1.92823C41.8591 0.8633 41.0089 0 39.9601 0C38.9113 0 38.061 0.8633 38.061 1.92823C38.061 2.99317 38.9113 3.85647 39.9601 3.85647Z" fill="#444444"/>
<path d="M50.715 6.54587V9.5803H50.7849C52.0843 7.79415 54.3332 6.54587 56.4121 6.54587C59.7505 6.54587 61.5795 8.36247 61.5795 11.9754V18.9678C61.5795 20.7844 62.2792 21.5354 64.0783 21.718V23.0069H55.7824V21.718C57.8914 21.718 58.631 20.6118 58.631 18.8967V12.7162C58.631 10.5343 57.5016 8.93079 55.3227 8.93079C53.6735 8.93079 52.2242 9.75283 50.715 11.0417V18.8561C50.715 20.5712 51.3446 21.7079 53.5635 21.7079V22.9968H45.1577V21.7079C47.0168 21.6368 47.7564 20.6321 47.7564 19.0692V10.3922L45.3976 9.03228V8.22039L49.8254 6.54587H50.715Z" fill="#444444"/>
<path d="M70.6051 6.54587V9.5803H70.6751C71.9744 7.79415 74.2233 6.54587 76.3023 6.54587C79.6406 6.54587 81.4697 8.36247 81.4697 11.9754V18.9678C81.4697 20.7844 82.1693 21.5354 83.9684 21.718V23.0069H75.6726V21.718C77.7815 21.718 78.5212 20.6118 78.5212 18.8967V12.7162C78.5212 10.5343 77.3917 8.93079 75.2128 8.93079C73.5636 8.93079 72.1143 9.75283 70.6051 11.0417V18.8561C70.6051 20.5712 71.2348 21.7079 73.4537 21.7079V22.9968H65.0479V21.7079C66.9069 21.6368 67.6466 20.6321 67.6466 19.0692V10.3922L65.2877 9.03228V8.22039L69.7155 6.54587H70.6051Z" fill="#444444"/>
<path d="M97.8512 13.1729H86.6367V13.5687C86.6367 17.7804 89.2754 20.5306 92.7537 20.5306C94.4029 20.5306 95.8122 19.9928 97.1115 18.8155L97.8512 19.4955C96.3419 21.992 94.0231 23.3824 91.3144 23.3824C87.1665 23.3824 83.998 20.0232 83.998 15.1316C83.998 10.2806 87.1665 6.52557 91.4144 6.52557C95.3224 6.54587 97.7812 9.92536 97.8512 13.1729ZM94.163 11.8231C93.8831 9.28599 92.6537 7.86519 90.6447 7.86519C88.7157 7.86519 87.2364 9.25555 86.8466 11.8231H94.163Z" fill="#444444"/>
<path d="M103.728 6.54587H104.608V10.0776H104.678C106.117 7.65207 106.997 6.68795 108.966 6.68795C110.445 6.68795 111.565 7.93623 111.565 8.72782C111.565 9.19465 111.105 11.0518 110.125 11.0518C108.926 11.0518 108.646 9.37733 107.487 9.37733C106.607 9.37733 105.977 10.0167 104.608 12.016V18.4806C104.608 21.2309 105.378 21.6977 108.196 21.7282V23.0171H99.0508V21.7282C100.77 21.7282 101.649 20.6524 101.649 19.0895V10.6256L99.0508 9.30629V8.48425L103.728 6.54587Z" fill="#444444"/>
<path d="M117.261 6.54587H118.141V9.25555C120.22 7.29686 121.729 6.54587 124.008 6.54587C126.297 6.54587 127.626 7.3679 128.436 9.25555C130.545 7.25627 131.984 6.54587 134.133 6.54587C137.192 6.54587 139.021 8.29143 139.021 10.8996V18.9678C139.021 20.6423 139.79 21.576 141.449 21.718V23.0069H133.403V21.718C135.402 21.6064 136.072 20.6118 136.072 18.8663V11.9449C136.072 10.1283 134.733 8.91049 132.594 8.91049C131.294 8.91049 129.745 9.59045 128.586 10.5546V18.8054C128.586 20.8453 129.355 21.5861 131.045 21.7282V23.0171H122.779V21.7282C124.858 21.7282 125.627 20.7336 125.627 18.8764V12.5538C125.627 10.1588 124.858 8.95109 122.459 8.95109C120.74 8.95109 119.54 9.41792 118.131 10.7372V18.6735C118.131 20.8148 118.761 21.5252 120.59 21.7079V22.9968H112.574V21.7079C114.293 21.6368 115.172 20.6727 115.172 19.0692V10.5343L112.644 9.03228V8.22039L117.261 6.54587Z" fill="#444444"/>
<path d="M157.402 14.8271C157.402 19.7187 153.953 23.3925 149.496 23.3925C145.098 23.3925 141.37 19.536 141.37 14.8575C141.37 10.2196 144.848 6.53568 149.246 6.53568C153.993 6.54582 157.402 9.9659 157.402 14.8271ZM146.257 19.6375C147.167 21.17 148.266 22.063 149.805 22.063C152.514 22.063 154.233 20.1348 154.233 16.9989C154.233 15.2127 153.883 13.112 153.214 11.4273C152.374 9.28595 150.965 7.85499 149.026 7.85499C146.107 7.85499 144.698 9.78323 144.698 13.457C144.708 15.6085 145.308 18.0746 146.257 19.6375Z" fill="#444444"/>
<path d="M168.646 8.07826V11.9347H167.557C167.027 9.08297 165.908 7.86514 163.969 7.86514C162.319 7.86514 161.33 8.71762 161.33 10.2602C161.33 11.5795 162.669 12.4726 164.498 13.2946C166.927 14.3704 168.396 15.0402 169.106 16.1464C169.526 16.7858 169.806 17.5774 169.806 18.6836C169.806 21.5353 167.807 23.3925 164.428 23.3925C162.779 23.3925 160.63 22.9663 159.261 22.2457V17.7499H160.42C160.81 20.5306 162.04 22.0732 164.179 22.0732C166.078 22.0732 167.377 20.967 167.377 19.536C167.377 18.2878 166.567 17.6078 164.179 16.5726C159.821 14.7155 158.761 13.183 158.761 10.859C158.761 8.57554 160.69 6.53568 163.899 6.53568C165.768 6.54582 167.347 7.04311 168.646 8.07826Z" fill="#444444"/>
<path d="M176.043 4.07974V6.9315H180.82V8.71766H176.043V19.2113C176.043 20.8148 176.602 21.2106 178.541 21.2106C179.491 21.2106 180.54 21.099 181 21.0279V22.7735C179.351 23.0576 177.942 23.3824 176.392 23.3824C174.004 23.3824 173.084 22.3066 173.084 20.348V8.71766H170.445V7.75354C171.815 7.25626 173.114 6.32258 174.843 4.07974H176.043Z" fill="#444444"/>
</g>
<defs>
<clipPath id="clip0">
<rect width="181" height="28" fill="white"/>
</clipPath>
</defs>
</svg>
